<svg preserveAspectRatio="none" width="100%" height="100%" overflow="visible" style="display: block;" viewBox="0 0 26 32" fill="none" xmlns="http://www.w3.org/2000/svg">
<g id="Vector">
<path fill-rule="evenodd" clip-rule="evenodd" d="M1.91144 0.0735512C2.26051 0.173773 2.48701 0.296257 2.95852 0.639723C5.02076 2.1419 5.99035 3.10588 7.04162 4.69936C7.42668 5.28299 7.9175 6.11607 8.16501 6.60608C8.32471 6.92228 8.39266 7.01428 8.53667 7.10925C8.64405 7.18006 8.76725 7.22545 8.85204 7.22545C8.92858 7.22545 9.29525 7.13451 9.66683 7.02336C10.8818 6.65985 11.429 6.57602 12.582 6.57651C13.3924 6.57684 13.6382 6.59208 14.4649 6.693C14.921 6.74869 15.5163 6.90507 15.9709 7.08855C16.4132 7.26714 16.6428 7.27868 16.8553 7.13303C16.9725 7.05265 17.0657 6.91073 17.2972 6.46084C18.0593 4.97912 19.0163 3.59754 19.9547 2.62436C20.7056 1.84563 21.1801 1.4967 22.2541 0.933323C22.8663 0.61212 23.4725 0.394713 24.0056 0.305129C24.4242 0.23481 25.1408 0.222898 25.3428 0.282908C25.5636 0.348545 25.7638 0.51999 25.8856 0.747666C25.9903 0.943469 26 0.996331 26 1.37233C26 1.94651 25.91 2.21066 25.4089 3.10711C25.1315 3.60337 25.1261 3.60966 24.9842 3.61027C24.9051 3.6106 24.6732 3.66412 24.4688 3.72923C24.2645 3.79433 23.9903 3.86945 23.8595 3.89623C23.5439 3.9608 23.3633 4.01831 23.2547 4.08891C23.053 4.22007 23.3157 4.40018 24.3847 4.86354C24.808 5.04702 24.8306 5.06291 24.8306 5.1764C24.8306 5.24212 24.7233 5.97497 24.592 6.80493C24.4608 7.63488 24.3433 8.38786 24.331 8.47822C24.2244 9.25938 23.837 10.6473 23.6163 11.0385C23.4386 11.3536 23.0052 11.9932 22.7864 12.2632C22.3072 12.8547 22.0408 13.4344 21.8153 14.3764C21.6862 14.9158 21.6835 14.9455 21.6814 15.8511C21.6798 16.5652 21.6949 16.8593 21.748 17.1449C21.7857 17.3483 21.87 17.8473 21.9353 18.254C22.0005 18.6606 22.1173 19.2798 22.1947 19.63C22.6699 21.7795 22.7084 22.0348 22.678 22.8338C22.6185 24.3999 22.1084 25.827 21.157 27.0887C20.773 27.598 20.6211 27.7674 19.8514 28.5439C19.119 29.2827 18.7449 29.5997 17.9473 30.1574C16.5081 31.1637 15.6656 31.5397 14.1568 31.849C13.0026 32.0856 12.1811 32.0493 10.8674 31.7039C10.1106 31.5048 9.82309 31.4005 9.15322 31.0814C8.55569 30.7969 8.16873 30.5533 7.29016 29.9086C6.42424 29.2732 6.11097 29.0221 5.40178 28.3947C4.12031 27.2611 3.35523 26.3179 2.82711 25.2205C2.40448 24.3424 2.15324 23.1285 2.23918 22.3796C2.25587 22.234 2.28187 21.9856 2.29698 21.8274C2.31204 21.6693 2.33023 21.5296 2.33737 21.517C2.34446 21.5044 2.40586 21.2087 2.47373 20.8598C2.54163 20.511 2.6223 20.1366 2.65306 20.028C2.73356 19.7434 2.94349 18.5885 3.16591 17.2066C3.39166 15.8039 3.44172 15.3518 3.44335 14.701C3.44493 14.0704 3.42139 13.9187 3.22006 13.2634C3.06582 12.7614 2.89942 12.4581 2.53255 12.0106C1.041 10.1912 0.422305 8.54932 0.071456 5.47978C-0.0247887 4.63779 -0.0235602 2.71534 0.0736358 1.94737C0.271477 0.384937 0.870112 -0.225471 1.91144 0.0735512ZM8.02714 14.045C7.66503 14.1446 7.42954 14.2844 7.16875 14.5547C6.95113 14.7802 6.69842 15.2124 6.61376 15.5039C6.37925 16.3113 6.49872 17.0336 6.94038 17.4784C7.32195 17.8627 8.06254 18.0973 8.56457 17.9928C9.25656 17.8488 9.89872 17.2241 10.0828 16.5159C10.1414 16.2901 10.1406 15.5876 10.0815 15.3312C9.95528 14.7848 9.666 14.3665 9.23194 14.1029C9.063 14.0003 8.99236 13.9839 8.67949 13.9747C8.42163 13.9671 8.23822 13.9868 8.02714 14.045Z" fill="white"/>
<path d="M10.1278 25.77C10.7059 25.0952 11.7108 24.6627 12.5592 24.7234C14.0495 24.8301 15.3423 26.1113 15.5254 27.6632C15.5647 27.9956 15.5271 28.1783 15.2847 28.8317C14.9472 29.7419 14.6738 30.0564 13.8738 30.4551C12.5094 31.1351 10.5019 30.916 9.59569 29.9883C9.25389 29.6384 8.96515 29.0007 8.96404 28.5933C8.96201 27.8319 9.51911 26.4803 10.1278 25.77Z" fill="var(--fill-0, #242426)"/>
<path d="M14.957 14.0727C15.2839 13.4285 16.0073 12.6758 16.4353 12.5342C17.0482 12.3316 17.5122 12.4721 17.9726 12.9997C18.3796 13.4661 18.5912 13.9339 18.763 14.7464C18.954 15.6503 18.9502 16.1837 18.7483 16.7912C18.3108 18.1078 17.6814 18.4368 16.2423 18.101C15.9251 18.027 15.5573 17.9108 15.4251 17.8428C14.296 17.2621 14.1077 15.7459 14.957 14.0727Z" fill="var(--fill-0, #242426)"/>
<path d="M1.07174 5.12483C0.907635 4.02712 1.02152 2.58584 1.30435 2.17928C1.7094 1.59721 2.22444 1.58813 3.0108 2.1493C3.70589 2.64536 4.22712 3.23415 4.95704 4.34765C5.76903 5.58635 6.14387 6.37156 6.3939 7.35737C6.9359 9.49406 6.60568 10.2694 5.07908 10.4442C4.74261 10.4828 4.33098 10.4829 4.16434 10.4443C2.74171 10.1157 1.49799 7.97638 1.07174 5.12483Z" fill="var(--fill-0, #242426)"/>
</g>
</svg>
