<svg preserveAspectRatio="none" width="100%" height="100%" overflow="visible" style="display: block;" viewBox="0 0 219 218.688" fill="none" xmlns="http://www.w3.org/2000/svg">
<g id="Group 1">
<path id="Star 1" d="M164.198 13.438L131.378 82.8185L194.903 39.7443L139.236 92.5836L214.031 75.366L143.035 104.528L219 115.492L142.264 117.038L209.138 154.704L137.025 128.425L185.777 187.705L128.027 137.151L152.072 210.038L116.484 142.036L112.576 218.688L103.956 142.422L72.6213 212.486L92.1341 138.256L37.6055 192.27L82.6156 130.101L12.2573 160.77L76.6858 119.059L0 122.24L75.1455 106.62L2.48907 81.8836L78.2027 94.464L19.3884 45.1518L85.4446 84.2337L48.4155 17.0052L95.8931 77.3103L85.6502 1.24513L108.137 74.6288L126.064 0L120.523 76.5515L164.198 13.438Z" fill="var(--fill-0, white)" fill-opacity="0.15"/>
<path id="Star 2" d="M108.247 30.0431L112.639 83.6553L136.102 35.2501L120.831 86.8286L160.195 50.1678L127.323 92.7468L177.272 72.7816L131.238 100.61L185.027 100.037L132.049 109.358L182.412 128.254L129.645 117.807L169.781 153.621L124.351 124.817L148.84 172.711L116.882 129.442L122.416 182.948L108.247 131.056L94.0782 182.948L99.6119 129.442L67.6544 172.711L92.1431 124.817L46.7127 153.621L86.8492 117.807L34.0816 128.254L84.4452 109.358L31.467 100.037L85.2557 100.61L39.2219 72.7816L89.1714 92.7468L56.299 50.1678L95.6633 86.8286L80.392 35.2501L103.855 83.6553L108.247 30.0431Z" fill="var(--fill-0, white)" fill-opacity="0.15"/>
</g>
</svg>
