<svg preserveAspectRatio="none" width="100%" height="100%" overflow="visible" style="display: block;" viewBox="0 0 56.0038 56.0038" fill="none" xmlns="http://www.w3.org/2000/svg">
<g id="icon">
<rect width="56.0038" height="56.0038" rx="17.5011" fill="var(--fill-0, #1A1A1A)"/>
<path id="Subtract" d="M28.0151 25.2592C28.1016 25.2592 29.0182 26.2475 30.0522 27.4555L31.9331 29.6517L30.7407 30.9164C28.9858 32.7792 28.5806 33.8515 28.5708 36.6596C28.5634 38.7175 28.6283 39.1005 29.1811 40.2582C29.5628 41.0571 30.2145 41.9093 30.9595 42.642C30.0034 42.8341 29.0141 42.9359 28.0014 42.9359C26.9804 42.9359 25.9835 42.8323 25.02 42.6371C25.0863 42.5715 25.155 42.506 25.2221 42.4369C26.9247 40.6862 27.5981 39.0499 27.5981 36.6596C27.5981 34.408 26.9459 32.7442 25.3852 31.0111L24.1509 29.64L24.7182 28.9457C26.2387 27.0881 27.8734 25.2605 28.0151 25.2592ZM28.0014 13.0678C29.1735 13.0678 30.3144 13.203 31.4087 13.4584C30.2936 14.8798 29.6956 16.8721 29.8442 19.0092C30.044 21.8791 31.2552 23.647 35.3266 27.015C38.6484 29.763 39.8612 31.6266 39.8706 33.9955C39.8793 36.2198 38.6413 38.0215 36.9096 38.3041C35.3203 38.5634 34.4817 36.3647 35.9038 35.6674C36.4305 35.4091 36.6297 35.4173 37.2261 35.723C38.0756 36.1587 38.0076 36.1574 38.1616 35.7445C38.3614 35.2093 37.897 34.1682 37.2339 33.6664C36.4187 33.0493 34.9501 33.0552 34.1372 33.6791C31.0547 36.0452 32.7931 40.0338 36.0522 40.5824C35.3927 41.0053 34.6971 41.3762 33.9721 41.6928C33.0098 41.0868 32.1842 40.2048 31.6684 39.1185C30.8437 37.3811 31.2128 35.0975 32.6274 33.184C33.1746 32.444 35.0768 31.2465 35.7055 31.2465C36.3457 31.2464 36.0986 30.9135 34.5913 29.7435C32.1478 27.8472 29.9489 24.8571 28.7397 21.7855C28.3959 20.9122 28.064 20.1984 28.0024 20.1986C27.9402 20.201 27.6536 20.8321 27.3647 21.6029C26.2129 24.6798 23.8505 27.9239 21.4106 29.7806C19.8842 30.9421 19.6639 31.2433 20.3305 31.2523C21.1895 31.2646 22.9683 32.5242 23.687 33.6293C24.7071 35.1975 24.9828 36.3686 24.6841 37.8656C24.3564 39.5074 23.3656 40.8741 22.0776 41.7133C21.3513 41.399 20.6547 41.0296 19.9936 40.6088C22.0688 40.2754 23.7122 38.2358 23.4546 36.2601C23.1153 33.6605 20.2571 32.2576 18.6089 33.8812C18.1132 34.3694 17.9223 34.7701 17.9223 35.3207C17.9223 36.2075 17.8771 36.1861 18.7798 35.723C19.7721 35.2144 20.693 35.6638 20.7915 36.7045C20.9384 38.2623 19.365 38.8373 17.8139 37.7924C16.9292 37.1964 16.1305 35.4013 16.1304 34.0111C16.1304 31.7257 17.3615 29.8342 20.6811 27.0228C25.2875 23.1221 26.0999 21.822 26.0962 18.35C26.0937 16.0762 25.6965 14.6764 24.6509 13.4447C25.7279 13.1978 26.8495 13.0678 28.0014 13.0678ZM34.0981 14.3656C34.6926 14.6318 35.2666 14.9352 35.8169 15.2738C35.4616 15.3916 35.1061 15.6023 34.7759 15.9135C34.0046 16.6403 33.9389 16.801 33.9389 17.9652C33.939 19.0302 34.047 19.3645 34.6235 20.0971C35.5027 21.2134 36.5628 21.7694 38.2163 21.9808C39.3479 22.1256 39.5497 22.2233 39.6098 22.6566C39.7154 23.4187 41.1056 24.5678 41.9223 24.5678C42.1139 24.5677 42.3112 24.5202 42.5063 24.4379C42.786 25.5799 42.936 26.7731 42.936 28.0013C42.936 28.9913 42.8376 29.9588 42.6538 30.8949C42.0809 29.8771 41.3894 28.91 40.5923 28.0209C39.2538 26.5285 39.0678 26.2179 39.2339 25.7562C39.532 24.9275 39.0609 23.4169 38.5044 23.4164C38.3962 23.4164 38.3072 23.5694 38.3071 23.7562C38.3071 23.9432 38.0633 24.2605 37.7651 24.4613C37.2616 24.8005 37.1552 24.7913 36.2534 24.3275C35.0096 23.688 33.4692 22.1718 32.8882 21.015C32.3165 19.8771 32.1161 17.7654 32.4741 16.6498C32.7901 15.6655 33.381 14.8946 34.0981 14.3656ZM21.896 14.3685C25.0206 16.712 24.0906 22.0587 19.9048 24.2396C18.8522 24.7879 18.7459 24.8021 18.2397 24.4613C17.942 24.2607 17.6977 23.9432 17.6977 23.7562C17.6976 23.321 17.3824 23.3209 17.0317 23.7553C16.8689 23.957 16.7898 24.5649 16.8364 25.2572C16.913 26.4014 16.8925 26.4435 15.5698 27.8763C14.6676 28.8537 13.9311 29.8371 13.3432 30.8646C13.1633 29.938 13.0679 28.9806 13.0679 28.0013C13.0679 26.7791 13.2157 25.5914 13.4927 24.4545C13.6667 24.5272 13.8433 24.5677 14.0161 24.5678C14.9694 24.5678 15.8454 23.942 16.2671 22.9594C16.6268 22.1214 16.7415 22.0346 17.4887 22.0346C19.9312 22.0346 22.1782 20.096 22.1782 17.9887C22.1782 16.7336 21.3212 15.5752 20.2554 15.2308C20.7817 14.9109 21.3295 14.6226 21.896 14.3685ZM17.5083 17.3763C17.4986 17.6134 17.6534 17.5999 18.1909 17.5101C19.5437 17.2845 20.0017 18.7814 18.7925 19.4769C17.9427 19.9654 16.9632 19.4859 16.437 18.5521C16.7731 18.1413 17.131 17.749 17.5083 17.3763ZM38.5005 17.3822C38.8773 17.7548 39.2341 18.1473 39.5698 18.558C38.715 19.9004 36.9422 20.0653 36.6089 18.6996C36.3995 17.8413 36.8829 17.3545 37.7934 17.5062C38.1912 17.5726 38.4207 17.5417 38.5005 17.3822Z" fill="var(--fill-0, white)"/>
</g>
</svg>
