<svg preserveAspectRatio="none" width="100%" height="100%" overflow="visible" style="display: block;" viewBox="0 0 100 25" fill="none" xmlns="http://www.w3.org/2000/svg">
<g id="Vector">
<path d="M2.10525 0H0V25H2.10525V0Z" fill="var(--fill-0, #242426)"/>
<path d="M4.21031 0H3.15768V25H4.21031V0Z" fill="var(--fill-0, #242426)"/>
<path d="M7.36849 0H6.31587V25H7.36849V0Z" fill="var(--fill-0, #242426)"/>
<path d="M12.6319 0H11.5793V25H12.6319V0Z" fill="var(--fill-0, #242426)"/>
<path d="M16.8419 0H14.7367V25H16.8419V0Z" fill="var(--fill-0, #242426)"/>
<path d="M22.1052 0H21.0525V25H22.1052V0Z" fill="var(--fill-0, #242426)"/>
<path d="M25.263 0H23.1578V25H25.263V0Z" fill="var(--fill-0, #242426)"/>
<path d="M28.4212 0H26.3159V25H28.4212V0Z" fill="var(--fill-0, #242426)"/>
<path d="M33.6839 0H29.4734V25H33.6839V0Z" fill="var(--fill-0, #242426)"/>
<path d="M35.7889 0H34.7362V25H35.7889V0Z" fill="var(--fill-0, #242426)"/>
<path d="M37.8943 0H36.8417V25H37.8943V0Z" fill="var(--fill-0, #242426)"/>
<path d="M44.2101 0H39.9996V25H44.2101V0Z" fill="var(--fill-0, #242426)"/>
<path d="M47.3681 0H46.3155V25H47.3681V0Z" fill="var(--fill-0, #242426)"/>
<path d="M50.5262 0H48.421V25H50.5262V0Z" fill="var(--fill-0, #242426)"/>
<path d="M53.684 0H52.6314V25H53.684V0Z" fill="var(--fill-0, #242426)"/>
<path d="M58.9469 0H57.8942V25H58.9469V0Z" fill="var(--fill-0, #242426)"/>
<path d="M66.3152 0H62.1047V25H66.3152V0Z" fill="var(--fill-0, #242426)"/>
<path d="M68.4207 0H67.368V25H68.4207V0Z" fill="var(--fill-0, #242426)"/>
<path d="M70.5259 0H69.4733V25H70.5259V0Z" fill="var(--fill-0, #242426)"/>
<path d="M72.6311 0H71.5785V25H72.6311V0Z" fill="var(--fill-0, #242426)"/>
<path d="M78.9471 0H74.7366V25H78.9471V0Z" fill="var(--fill-0, #242426)"/>
<path d="M83.1575 0H81.0523V25H83.1575V0Z" fill="var(--fill-0, #242426)"/>
<path d="M86.3155 0H85.2629V25H86.3155V0Z" fill="var(--fill-0, #242426)"/>
<path d="M88.4207 0H87.3681V25H88.4207V0Z" fill="var(--fill-0, #242426)"/>
<path d="M93.6841 0H92.6315V25H93.6841V0Z" fill="var(--fill-0, #242426)"/>
<path d="M96.8417 0H94.7365V25H96.8417V0Z" fill="var(--fill-0, #242426)"/>
<path d="M100 0H98.9474V25H100V0Z" fill="var(--fill-0, #242426)"/>
</g>
</svg>
