<svg preserveAspectRatio="none" width="100%" height="100%" overflow="visible" style="display: block;" viewBox="0 0 142 43" fill="none" xmlns="http://www.w3.org/2000/svg">
<g id="Card-1" clip-path="url(#clip0_0_6)">
<path id="Subtract" d="M3.23669e-06 5.97655C2.8032 5.72388 5 3.36897 5 0.499988C5 0.331413 4.99141 0.164698 4.97657 -1.1979e-05L8.22364 -1.16951e-05C8.18239 0.159999 8.15821 0.327099 8.15821 0.499988C8.15821 1.60456 9.05364 2.49999 10.1582 2.49999C11.2626 2.49981 12.1582 1.60445 12.1582 0.499989C12.1582 0.327157 12.134 0.15995 12.0928 -1.13569e-05L15.3809 -1.10694e-05C15.3396 0.159951 15.3154 0.327158 15.3154 0.499989C15.3154 1.60445 16.211 2.49981 17.3154 2.49999C18.42 2.49999 19.3154 1.60456 19.3154 0.499989C19.3154 0.3271 19.2912 0.16 19.25 -1.07311e-05L22.5391 -1.04436e-05C22.4978 0.159974 22.4736 0.327131 22.4736 0.49999C22.4736 1.60455 23.3691 2.49998 24.4736 2.49999C25.5782 2.49999 26.4736 1.60456 26.4736 0.49999C26.4736 0.327127 26.4494 0.159978 26.4082 -1.01054e-05L29.6973 -9.81782e-06C29.656 0.159997 29.6318 0.327105 29.6318 0.49999C29.6318 1.60456 30.5273 2.49999 31.6318 2.49999C32.7363 2.49984 33.6318 1.60447 33.6318 0.499991C33.6318 0.327155 33.6076 0.159956 33.5664 -9.47957e-06L36.8545 -9.19211e-06C36.8133 0.159949 36.7891 0.327164 36.7891 0.499991C36.7891 1.60443 37.6847 2.49978 38.7891 2.49999C39.8936 2.49999 40.7891 1.60456 40.7891 0.499991C40.7891 0.327097 40.7649 0.160006 40.7236 -8.85386e-06L44.0127 -8.56632e-06C43.9715 0.159971 43.9473 0.327138 43.9473 0.499991C43.9473 1.60453 44.8427 2.49995 45.9473 2.49999C47.0518 2.49999 47.9473 1.60456 47.9473 0.499992C47.9473 0.327124 47.9231 0.159984 47.8818 -8.22807e-06L51.1709 -7.94053e-06C51.1297 0.159994 51.1055 0.327112 51.1055 0.499992C51.1055 1.60456 52.0009 2.49999 53.1055 2.49999C54.2099 2.49987 55.1055 1.60449 55.1055 0.499992C55.1055 0.327151 55.0813 0.159962 55.04 -7.60228e-06L58.3291 -7.31474e-06C58.2879 0.160017 58.2627 0.327086 58.2627 0.499993C58.2627 1.60441 59.1583 2.49975 60.2627 2.49999C61.3673 2.49999 62.2627 1.60456 62.2627 0.499993C62.2627 0.327093 62.2385 0.160012 62.1973 -6.97658e-06L65.4863 -6.68904e-06C65.4451 0.159969 65.4209 0.327145 65.4209 0.499993C65.4209 1.60451 66.3164 2.49992 67.4209 2.49999C68.5255 2.49999 69.4209 1.60456 69.4209 0.499994C69.4209 0.327121 69.3967 0.15999 69.3555 -6.35079e-06L72.6445 -6.06325e-06C72.6033 0.159992 72.5791 0.327119 72.5791 0.499994C72.5791 1.60456 73.4745 2.49999 74.5791 2.49999C75.6836 2.49991 76.5791 1.60451 76.5791 0.499994C76.5791 0.327148 76.5549 0.159969 76.5137 -5.725e-06L79.8027 -5.43746e-06C79.7615 0.160015 79.7373 0.327094 79.7373 0.499995C79.7373 1.60456 80.6327 2.49999 81.7373 2.49999C82.8417 2.49974 83.7373 1.60441 83.7373 0.499995C83.7373 0.32709 83.7121 0.160018 83.6709 -5.09929e-06L86.96 -4.81175e-06C86.9187 0.159966 86.8945 0.327153 86.8945 0.499995C86.8945 1.6045 87.7901 2.49988 88.8945 2.5C89.9991 2.5 90.8945 1.60457 90.8945 0.499996C90.8945 0.327117 90.8703 0.159997 90.8291 -4.4735e-06L94.1182 -4.18596e-06C94.0769 0.159989 94.0527 0.327126 94.0527 0.499996C94.0527 1.60457 94.9482 2.5 96.0527 2.5C97.1573 2.49994 98.0527 1.60453 98.0527 0.499996C98.0527 0.327145 98.0285 0.159975 97.9873 -3.84771e-06L101.276 -3.56017e-06C101.235 0.160013 101.211 0.3271 101.211 0.499996C101.211 1.60457 102.106 2.5 103.211 2.5C104.315 2.49977 105.211 1.60443 105.211 0.499997C105.211 0.327172 105.187 0.159953 105.146 -3.22192e-06L108.434 -2.93447e-06C108.392 0.159965 108.368 0.327159 108.368 0.499997C108.368 1.60448 109.264 2.49986 110.368 2.5C111.473 2.5 112.368 1.60457 112.368 0.499997C112.368 0.327115 112.344 0.160002 112.303 -2.59622e-06L115.592 -2.30868e-06C115.551 0.159988 115.526 0.327133 115.526 0.499998C115.526 1.60457 116.422 2.5 117.526 2.5C118.631 2.49997 119.526 1.60455 119.526 0.499998C119.526 0.327142 119.502 0.15998 119.461 -1.97043e-06L122.75 -1.68289e-06C122.709 0.160011 122.685 0.327106 122.685 0.499998C122.685 1.60457 123.58 2.5 124.685 2.5C125.789 2.4998 126.685 1.60445 126.685 0.499999C126.685 0.32717 126.66 0.159959 126.619 -1.34464e-06L129.907 -1.05718e-06C129.866 0.159963 129.842 0.327165 129.842 0.499999C129.842 1.60447 130.737 2.49983 131.842 2.5C132.946 2.5 133.842 1.60457 133.842 0.499999C133.842 0.327112 133.818 0.160008 133.776 -7.18933e-07L137.023 -4.35065e-07C137.009 0.16471 137 0.331424 137 0.5C137 3.36899 139.197 5.72391 142 5.97656V43L0 43L3.23669e-06 5.97655Z" fill="var(--fill-0, #f0f0f2)"/>
</g>
<defs>
<clipPath id="clip0_0_6">
<rect width="142" height="43" fill="white"/>
</clipPath>
</defs>
</svg>
