<svg preserveAspectRatio="none" width="100%" height="100%" overflow="visible" style="display: block;" viewBox="0 0 142 99" fill="none" xmlns="http://www.w3.org/2000/svg">
<g id="Card-2" clip-path="url(#clip0_0_4)">
<path id="Subtract" d="M142 94.0234C139.362 94.2613 137.261 96.3615 137.023 99H133.776C133.554 98.1377 132.773 97.5 131.842 97.5C130.91 97.5002 130.129 98.1377 129.907 99H126.619C126.397 98.1377 125.616 97.5002 124.685 97.5C123.753 97.5 122.972 98.1377 122.75 99H119.461C119.239 98.1377 118.458 97.5 117.526 97.5C116.595 97.5 115.814 98.1377 115.592 99H112.303C112.08 98.1377 111.3 97.5 110.368 97.5C109.437 97.5001 108.656 98.1377 108.434 99H105.146C104.923 98.1378 104.143 97.5002 103.211 97.5C102.279 97.5 101.499 98.1377 101.276 99H97.9873C97.7651 98.1377 96.9844 97.5 96.0527 97.5C95.121 97.5 94.3404 98.1377 94.1182 99H90.8291C90.6069 98.1377 89.8262 97.5 88.8945 97.5C87.9629 97.5001 87.1821 98.1377 86.96 99H83.6709C83.4487 98.1379 82.6688 97.5002 81.7373 97.5C80.8056 97.5 80.025 98.1377 79.8027 99H76.5137C76.2915 98.1377 75.5108 97.5001 74.5791 97.5C73.6474 97.5 72.8668 98.1377 72.6445 99H69.3555C69.1332 98.1377 68.3526 97.5 67.4209 97.5C66.4892 97.5001 65.7085 98.1377 65.4863 99H62.1973C61.975 98.1377 61.1944 97.5 60.2627 97.5C59.3312 97.5002 58.5513 98.1379 58.3291 99H55.04C54.8178 98.1377 54.0371 97.5001 53.1055 97.5C52.1738 97.5 51.3931 98.1377 51.1709 99H47.8818C47.6596 98.1377 46.879 97.5 45.9473 97.5C45.0156 97.5 44.2349 98.1377 44.0127 99H40.7236C40.5014 98.1377 39.7207 97.5 38.7891 97.5C37.8575 97.5002 37.0766 98.1378 36.8545 99H33.5664C33.3442 98.1377 32.5635 97.5001 31.6318 97.5C30.7001 97.5 29.9195 98.1377 29.6973 99H26.4082C26.186 98.1377 25.4053 97.5 24.4736 97.5C23.5419 97.5 22.7613 98.1377 22.5391 99H19.25C19.0277 98.1377 18.2471 97.5 17.3154 97.5C16.3838 97.5002 15.603 98.1378 15.3809 99H12.0928C11.8706 98.1377 11.0898 97.5001 10.1582 97.5C9.22652 97.5 8.44588 98.1377 8.22363 99H4.97656C4.73875 96.3615 2.6385 94.2612 0 94.0234V0H142V94.0234Z" fill="var(--fill-0, #242426)"/>
</g>
<defs>
<clipPath id="clip0_0_4">
<rect width="142" height="99" fill="white"/>
</clipPath>
</defs>
</svg>
