<svg width="287" height="161" viewBox="0 0 287 161" fill="none" xmlns="http://www.w3.org/2000/svg">
<path fill-rule="evenodd" clip-rule="evenodd" d="M241.2 1.06783C240.127 2.42504 239.991 4.26548 240.964 4.26548C241.332 4.26548 241.732 4.52381 241.854 4.83901C241.996 5.20892 242.557 5.34221 243.43 5.215C244.501 5.0587 244.707 5.14293 244.414 5.61834C244.143 6.05729 244.332 6.03037 245.116 5.51892C246.489 4.62193 246.846 2.22706 245.671 1.80375C245.235 1.64745 244.358 1.16031 243.72 0.721369C242.251 -0.290242 242.277 -0.29372 241.2 1.06783ZM203.263 3.01464C202.995 3.44143 202.935 3.88905 203.13 4.00888C203.325 4.12915 203.501 5.69345 203.521 7.48526C203.541 9.27751 203.71 10.9886 203.896 11.2877C204.358 12.031 204.976 15.4718 204.945 17.1277C204.931 17.8736 205.142 19.0458 205.413 19.7327C205.684 20.4191 205.964 21.6769 206.035 22.5274C206.377 26.5904 207.674 35.3914 208.031 36.0622C208.252 36.4768 208.432 37.4771 208.432 38.2847C208.432 40.578 209.733 47.4487 210.197 47.6097C210.427 47.6896 210.614 48.0313 210.614 48.3695C210.614 48.7082 210.968 48.9847 211.4 48.9847C211.832 48.9847 212.398 49.1962 212.658 49.4545C212.997 49.7914 213.418 49.761 214.147 49.346C216.036 48.2714 216.366 47.687 216.501 45.178C216.783 39.9371 217.293 35.9597 217.681 35.9597C217.904 35.9597 217.973 35.7774 217.834 35.5546C217.46 34.952 219.431 29.5032 220.79 27.3849C221.441 26.3698 222.265 25.5397 222.621 25.5397C223.159 25.5397 226.361 31.1552 226.706 32.7035C226.759 32.9422 226.908 33.6261 227.035 34.223C227.164 34.82 227.447 35.6992 227.664 36.1768C227.88 36.6544 228.272 37.9243 228.533 38.9989C228.794 40.0735 229.114 41.392 229.246 41.9295C229.378 42.467 229.636 42.9064 229.82 42.9064C230.004 42.9064 230.257 43.295 230.382 43.7695C230.506 44.2441 231.118 44.8254 231.742 45.0612C232.365 45.2969 232.881 45.8366 232.888 46.2603C232.901 46.9915 232.925 46.9919 233.347 46.2712C233.592 45.8531 234.175 45.5114 234.643 45.5114C235.111 45.5114 235.494 45.2183 235.494 44.8601C235.494 44.502 235.676 44.2089 235.898 44.2089C236.683 44.2089 235.373 38.4054 234.183 36.611C234.024 36.3722 233.634 35.0532 233.315 33.6803C232.997 32.3075 232.571 31.1839 232.369 31.1839C232.167 31.1839 232.002 30.8018 232.002 30.3346C232.002 29.8675 231.459 28.5489 230.795 27.404C230.131 26.2591 229.202 24.5902 228.732 23.6945C228.261 22.7992 227.733 22.0663 227.557 22.0663C227.383 22.0663 226.494 21.5627 225.583 20.9471C223.922 19.8239 223.464 19.7883 219.999 20.5112C218.717 20.7786 215.872 23.5269 215.859 24.5098C215.855 24.779 215.549 25.2497 215.177 25.5562C214.806 25.8623 214.604 26.3746 214.727 26.6946C214.852 27.018 214.667 27.2764 214.311 27.2764C213.907 27.2764 213.67 27.7053 213.67 28.4343C213.67 29.5801 213.25 29.6339 213.079 28.5103C213.03 28.1898 212.812 27.6437 212.595 27.2968C212.196 26.6603 211.188 22.0182 210.752 18.8101C210.622 17.8549 210.359 16.878 210.168 16.6393C209.976 16.4005 209.679 15.457 209.507 14.5422C209.335 13.6279 208.96 12.7899 208.673 12.6805C208.372 12.5659 208.229 11.9572 208.334 11.2447C208.435 10.5561 208.111 9.09559 207.601 7.94982C207.098 6.81795 206.686 5.42818 206.686 4.86159C206.686 4.295 206.489 3.83131 206.249 3.83131C206.009 3.83131 205.813 3.56082 205.813 3.23086C205.813 2.27916 203.83 2.1107 203.263 3.01464ZM244.811 20.5654C244.418 21.584 244.842 21.7034 245.444 20.7443C245.782 20.2068 245.811 19.8955 245.523 19.8955C245.274 19.8955 244.953 20.1968 244.811 20.5654ZM245.021 22.6612C244.085 23.4214 243.97 23.721 244.377 24.3444C244.738 24.8971 244.743 25.3091 244.394 25.864C244.043 26.4228 244.073 27.6094 244.503 30.316C245.305 35.3545 246.507 40.3014 246.93 40.3014C247.122 40.3014 247.279 40.6014 247.279 40.9678C247.279 42.0467 248.625 43.7747 249.465 43.7747C249.892 43.7747 250.36 44.0821 250.505 44.4581C250.745 45.0803 250.831 45.0803 251.456 44.4581C251.834 44.0821 252.375 43.773 252.657 43.7713C253.2 43.7678 254.263 41.8353 254.263 40.8537C254.263 40.5363 253.576 38.8356 252.736 37.0747C251.895 35.3132 251.208 33.5544 251.208 33.1658C251.208 32.7773 250.914 32.347 250.556 32.2102C250.197 32.073 250.007 31.7939 250.134 31.5894C250.476 31.0393 248.973 25 248.296 24.202C247.976 23.8243 247.819 23.4114 247.947 23.2838C248.075 23.1565 247.726 22.7562 247.17 22.3941C246.244 21.7907 246.067 21.8124 245.021 22.6612ZM168.834 26.2995C168.676 26.7176 168.252 27.279 167.892 27.5477C167.369 27.9376 167.265 28.8997 167.376 32.3236C167.454 34.6815 167.514 37.0126 167.51 37.5036C167.507 37.9951 166.991 39.5147 166.362 40.8814C165.733 42.2482 165.219 43.5559 165.219 43.7878C165.219 44.0192 165.023 44.2089 164.783 44.2089C164.543 44.2089 164.346 44.495 164.346 44.845C164.346 45.6269 163.011 46.3797 161.624 46.3797C160.285 46.3797 157.067 43.2316 156.698 41.5609C156.545 40.8684 156.239 40.3014 156.018 40.3014C155.797 40.3014 155.616 40.1186 155.616 39.8954C155.616 39.6723 155.39 38.9394 155.114 38.2673C154.837 37.5952 154.653 36.624 154.703 36.1099C154.754 35.5954 154.587 35.0462 154.333 34.8899C154.079 34.7341 153.871 33.7198 153.871 32.637C153.871 31.0336 153.709 30.6264 152.998 30.4414C152.517 30.3164 152.125 30.0346 152.125 29.8154C152.125 29.577 151.816 29.5814 151.356 29.8258C150.694 30.1783 150.603 30.7914 150.698 34.243C150.759 36.4477 151.024 38.5087 151.286 38.823C151.548 39.1378 151.636 39.6002 151.48 39.8512C151.324 40.1021 151.52 40.4312 151.915 40.5819C152.445 40.7842 152.493 40.9431 152.099 41.1854C151.698 41.4324 151.779 41.8227 152.428 42.7531C152.903 43.4343 153.416 44.3335 153.568 44.7516C153.719 45.1697 154.144 45.5114 154.512 45.5114C154.889 45.5114 155.18 45.8896 155.18 46.3797C155.18 46.8573 155.363 47.2481 155.587 47.2481C155.811 47.2481 156.119 47.6388 156.271 48.1164C156.557 49.0112 157.799 49.3438 157.799 48.525C157.799 48.2723 158.016 48.1989 158.282 48.3621C158.619 48.5692 158.586 48.7742 158.173 49.039C157.682 49.3542 157.692 49.4919 158.235 49.8466C158.596 50.0814 159.171 50.2768 159.514 50.2807C159.857 50.2842 160.822 50.5317 161.658 50.83C162.875 51.2641 163.216 51.2641 163.362 50.83C163.464 50.5317 164.119 50.2872 164.819 50.2872C166.192 50.2872 167.576 49.1871 168.042 47.7252C168.267 47.0223 168.505 46.9059 169.086 47.2155C169.666 47.5238 170.124 49.2969 171.078 54.9216C172.523 63.4408 173.005 71.5397 172.231 74.2715C171.291 77.5873 170.89 77.8552 166.837 77.8703C164.867 77.8777 162.976 78.0566 162.635 78.2672C162.168 78.5563 162.084 78.473 162.294 77.9281C162.496 77.4049 162.336 77.2056 161.714 77.2056C161.241 77.2056 160.854 77.0506 160.854 76.8613C160.854 76.6716 160.019 76.2921 158.999 76.0173C157.358 75.5758 157.047 75.6135 156.302 76.3434C155.591 77.0402 155.538 77.3407 155.965 78.2728C156.243 78.8798 156.749 79.3765 157.088 79.3765C157.428 79.3765 157.819 79.6695 157.957 80.0277C158.095 80.3859 158.563 80.679 158.998 80.679C159.432 80.679 160.235 80.9907 160.782 81.3719C161.329 81.7531 162.404 82.163 163.17 82.2832C163.937 82.4031 164.663 82.6388 164.783 82.8073C164.903 82.9753 166.315 83.1464 167.922 83.1867C172.032 83.2909 173.86 82.4269 176.596 79.0856C176.972 78.6271 177.637 76.7953 178.073 75.0153C178.731 72.3282 178.815 70.8273 178.57 66.1782C178.408 63.0978 178.087 60.2288 177.858 59.8029C177.629 59.3765 177.441 58.3424 177.441 57.5053C177.441 56.6678 177.27 55.8776 177.061 55.7491C176.852 55.6201 176.75 54.9176 176.836 54.1874C176.939 53.3051 176.774 52.7772 176.343 52.6126C175.573 52.3187 175.482 51.2989 176.204 51.0592C176.591 50.9307 176.591 50.5443 176.204 49.4389C175.924 48.64 175.695 47.5372 175.695 46.9876C175.695 46.4383 175.351 45.7871 174.931 45.5409C174.405 45.2327 174.321 44.9895 174.659 44.7594C175.017 44.5167 175.029 43.6766 174.702 41.6742C174.379 39.6936 174.396 38.1119 174.764 36.03C175.471 32.0366 175.392 30.8131 174.293 28.7308C172.834 25.9665 169.517 24.489 168.834 26.2995ZM90.0107 29.9144C87.2228 31.358 84.057 34.2995 82.9797 36.4468C82.1115 38.1779 82.0893 41.0291 82.9278 43.0254C84.057 45.7137 87.6964 48.2736 93.4166 50.4036C94.3769 50.7614 96.4153 51.5611 97.9465 52.1815C99.4773 52.8015 100.932 53.1853 101.178 53.0338C101.436 52.8753 101.494 52.9708 101.315 53.2591C101.136 53.5483 101.266 53.7606 101.623 53.7606C102.5 53.7606 106.141 57.0425 106.413 58.0779C106.578 58.7031 106.113 59.4252 104.73 60.6929C103.68 61.6559 102.522 62.4439 102.156 62.4439C101.791 62.4439 101.492 62.6393 101.492 62.8781C101.492 63.1169 101.001 63.3123 100.4 63.3123C99.8003 63.3123 99.3093 63.4794 99.3093 63.6839C99.3093 63.8888 98.7689 64.0682 98.1089 64.0829C97.4489 64.0977 95.6545 64.3386 94.1211 64.6182C92.3721 64.9374 91.2342 64.9725 91.0657 64.712C90.9186 64.4841 90.356 64.1606 89.8156 63.9926C89.1473 63.7855 88.8335 63.3474 88.8335 62.6237C88.8335 61.705 88.6838 61.5964 87.7423 61.8313C87.0701 61.9993 86.651 61.919 86.651 61.6225C86.651 60.6487 85.9404 61.184 85.2647 62.6667C84.8828 63.5055 84.7436 64.2983 84.9557 64.4289C85.1678 64.5592 85.3481 65.0941 85.356 65.6173C85.38 67.1716 86.8221 68.5214 88.4668 68.5288C89.5376 68.534 89.7541 68.643 89.2822 68.94C88.7292 69.2877 88.741 69.3824 89.3682 69.622C90.5493 70.0727 93.809 70.1231 94.3839 69.6997C94.6759 69.4844 95.167 69.3984 95.4751 69.5078C95.7833 69.6177 96.4044 69.5183 96.8549 69.2873C97.3922 69.0116 97.7684 69.0181 97.9474 69.306C98.4756 70.1561 106.73 67.3149 106.73 66.2833C106.73 66.0818 107.009 65.9173 107.35 65.9173C108.446 65.9173 111.403 62.6098 111.696 61.0559C112.05 59.1777 111.628 55.5863 110.958 54.7748C108.744 52.0938 105.384 49.3399 104.663 49.6152C104.359 49.7311 104.111 49.6286 104.111 49.3872C104.111 48.8545 98.6894 46.3797 97.5227 46.3797C97.0648 46.3797 96.6903 46.1844 96.6903 45.9456C96.6903 45.7068 96.2948 45.5114 95.8112 45.5114C95.328 45.5114 94.5912 45.3382 94.1744 45.1259C93.7575 44.914 92.2708 44.1989 90.871 43.5364C86.7759 41.6 86.2861 40.1004 88.8243 37.2726C89.5319 36.4842 90.167 35.7088 90.2359 35.5486C90.3049 35.3888 91.2805 34.6342 92.404 33.8722C94.8715 32.1985 97.7842 31.9541 98.9618 33.3226C99.6812 34.1579 101.492 34.1293 101.492 33.2826C101.492 32.3757 100.154 30.3972 99.0583 29.683C98.0967 29.056 97.8226 29.0256 97.5083 29.5102C97.1875 30.0051 97.0661 30.0047 96.7444 29.5084C96.534 29.1841 95.5026 28.8476 94.4529 28.7608C92.9732 28.6383 91.9736 28.898 90.0107 29.9144ZM120.634 30.609C120.37 30.9251 119.791 31.1839 119.348 31.1839C118.811 31.1839 118.626 31.401 118.793 31.8351C118.964 32.2767 118.771 32.4864 118.195 32.4864C117.27 32.4864 116.12 34.3828 116.286 35.6341C116.344 36.0656 116.104 36.3939 115.731 36.3939C114.79 36.3939 114.428 37.1589 114.089 39.8672C113.925 41.1806 113.651 43.0762 113.479 44.0795C113.308 45.0833 113.32 46.2556 113.505 46.6845C113.691 47.1139 113.801 47.8941 113.75 48.4182C113.699 48.9426 113.908 49.8218 114.215 50.3719C114.521 50.9224 114.723 51.542 114.662 51.7491C114.602 51.9562 114.779 52.8098 115.057 53.6464C115.427 54.7622 115.662 55.0088 115.94 54.5725C116.214 54.1422 116.325 54.2781 116.34 55.0631C116.363 56.2201 117.685 58.1023 118.476 58.1023C118.737 58.1023 118.951 58.3623 118.951 58.6801C118.951 59.8754 123.726 61.2947 126.345 60.8783C127.32 60.7233 128.118 60.4259 128.118 60.2175C128.118 60.0091 128.329 59.8389 128.588 59.8389C129.48 59.8389 132.531 56.1424 133.875 53.435C134.616 51.9427 135.372 50.7214 135.557 50.7214C135.741 50.7214 136.499 51.6492 137.24 52.7837C139.89 56.8393 141.479 58.1023 143.929 58.1023C144.835 58.1023 145.577 57.949 145.577 57.7619C145.577 57.5743 146.179 57.0676 146.915 56.6352C148.795 55.5307 149.371 54.1192 148.467 52.8345C148.006 52.1802 147.757 52.0534 147.753 52.4698C147.748 52.9474 147.659 52.973 147.403 52.5718C147.134 52.1503 146.763 52.1459 145.683 52.5514C144.443 53.0169 144.219 52.9687 143.433 52.0673C142.953 51.5168 142.236 50.1583 141.84 49.0486C141.444 47.9388 140.961 46.6402 140.766 46.1627C140.072 44.4603 139.466 41.1867 139.466 39.1413C139.466 37.511 139.161 36.617 138.048 34.9928C136.737 33.079 136.492 32.9223 134.81 32.9214C133.81 32.921 132.923 33.1246 132.84 33.3738C132.756 33.6235 132.088 33.2444 131.356 32.5324C130.623 31.8199 129.747 31.1765 129.409 31.1018C129.07 31.0276 128.526 30.7193 128.199 30.4171C127.39 29.6686 121.289 29.8232 120.634 30.609ZM123.971 32.9205C123.739 33.2939 125.42 33.5509 127.572 33.4715C127.872 33.4602 128.118 33.6117 128.118 33.808C128.118 34.0042 128.51 34.2886 128.991 34.4401C129.471 34.5916 129.864 35.0167 129.864 35.384C129.864 35.8125 130.109 35.9588 130.547 35.7917C131.132 35.5685 131.219 35.9823 131.154 38.6759C131.112 40.4056 131.224 42.1761 131.402 42.6099C131.585 43.0553 131.51 43.6132 131.231 43.8907C130.959 44.1611 130.737 45.0156 130.737 45.7897C130.737 46.5638 130.549 47.3123 130.319 47.4534C130.09 47.5945 130.012 47.997 130.148 48.3474C130.283 48.6978 130.176 48.9847 129.91 48.9847C129.644 48.9847 129.427 49.2539 129.427 49.583C129.427 49.9117 129.132 50.424 128.772 50.7214C128.412 51.0188 128.118 51.5225 128.118 51.8411C128.118 52.1598 127.369 53.2261 126.455 54.2113C124.917 55.868 124.672 55.9796 123.181 55.7013C122.277 55.5324 121.57 55.1456 121.57 54.8191C121.57 54.4995 121.321 54.0819 121.015 53.8908C120.239 53.4046 119.386 51.3371 119.099 49.2405C118.965 48.264 118.656 47.2198 118.412 46.9203C117.744 46.101 117.739 40.6709 118.406 40.4164C118.713 40.2992 118.951 39.47 118.951 38.5183C118.951 37.3052 119.136 36.828 119.606 36.828C119.966 36.828 120.261 36.5558 120.261 36.2233C120.261 35.8907 120.555 35.506 120.916 35.3684C121.276 35.2312 121.57 34.728 121.57 34.2504C121.57 33.6591 121.778 33.4611 122.221 33.6304C122.593 33.7724 122.988 33.58 123.141 33.1828C123.289 32.7998 123.596 32.4864 123.825 32.4864C124.054 32.4864 124.119 32.6817 123.971 32.9205ZM153.434 33.8353C153.434 34.0485 153.139 34.223 152.779 34.223C152.419 34.223 152.125 33.9361 152.125 33.5853C152.125 33.1971 152.38 33.0456 152.779 33.1975C153.139 33.3352 153.434 33.6222 153.434 33.8353ZM2.54682 36.6609C1.67122 37.0903 1.24477 37.5687 1.39318 37.9538C1.52281 38.2899 1.42723 38.5647 1.18105 38.5647C0.687375 38.5647 -0.27683 42.4483 0.0758537 43.0158C0.197198 43.2112 0.253503 47.9063 0.20156 53.4502C0.084581 65.8943 0.064939 64.4498 0.419805 69.6077C0.794314 75.0587 0.892962 75.5341 1.8838 76.6707C3.26267 78.252 4.57869 77.4635 5.70134 74.3835C6.21727 72.9669 6.30151 59.4386 5.81482 56.1485C5.56733 54.477 5.38924 52.5849 5.41936 51.944C5.44904 51.3028 5.28929 50.6654 5.0645 50.5269C4.81134 50.3715 4.80959 49.7406 5.0597 48.8732C5.56821 47.1096 5.56864 46.698 5.06275 47.0093C4.54071 47.3301 4.0872 45.2322 4.22818 43.1474C4.34342 41.4445 5.08152 40.7633 6.01517 41.4971C7.94359 43.0136 24.3229 51.278 29.0117 53.1007C32.1902 54.3359 33.3141 54.5833 34.7275 54.3584C36.8746 54.0172 37.6293 52.9283 36.9126 51.2068C36.36 49.8796 33.044 48.0105 29.4708 47.0123C28.8707 46.8443 26.8083 46.022 24.8877 45.184C22.9671 44.3465 20.6101 43.3197 19.6498 42.9021C18.6895 42.4848 16.8724 41.781 15.6123 41.3377C14.3521 40.8945 13.3207 40.3821 13.3207 40.1994C13.3207 40.0166 13.0754 39.8638 12.7751 39.859C12.4752 39.8546 10.8799 39.1708 9.2308 38.3394C7.5813 37.5084 5.96061 36.828 5.62975 36.828C5.29846 36.828 5.0274 36.6327 5.0274 36.3939C5.0274 35.7774 4.1566 35.8711 2.54682 36.6609ZM8.08283 48.1299C8.08283 48.3613 8.37746 48.5506 8.73756 48.5506C9.09767 48.5506 9.3923 48.4737 9.3923 48.3799C9.3923 48.2862 9.09767 48.0969 8.73756 47.9592C8.37746 47.822 8.08283 47.8989 8.08283 48.1299ZM8.82224 50.1305C8.47348 50.4774 8.86764 51.1556 9.41805 51.1556C9.64415 51.1556 9.82879 50.8625 9.82879 50.5043C9.82879 49.8331 9.31373 49.6416 8.82224 50.1305ZM10.2998 53.936C9.5215 54.869 10.2059 56.7989 11.487 57.2834C13.2164 57.9373 13.7777 57.5166 13.315 55.9119C12.6123 53.4749 11.3661 52.6582 10.2998 53.936ZM11.1383 58.2381C11.1383 58.3667 14.2749 64.4255 15.9833 67.5962C16.4163 68.4003 17.2709 69.6589 17.8829 70.3935C18.4944 71.1277 18.9951 71.9744 18.9951 72.2748C18.9951 72.5752 19.2426 72.9769 19.5451 73.1679C19.8475 73.3589 20.4857 74.2694 20.9636 75.1911C21.4412 76.1128 22.078 76.9638 22.3779 77.0828C22.6782 77.2013 22.9235 77.4896 22.9235 77.7227C22.9235 77.9563 23.8563 79.3439 24.9968 80.8066C27.7812 84.3777 28.2168 84.9121 29.3617 86.1634C29.9021 86.7534 30.3438 87.4216 30.3438 87.6482C30.3438 87.8744 30.645 88.0598 31.0125 88.0598C31.3805 88.0598 31.8292 88.4575 32.0099 88.9434C32.3787 89.9346 42.6934 100.424 45.38 102.54C46.3346 103.292 47.7349 104.493 48.4922 105.209C49.2495 105.926 51.1229 107.581 52.6554 108.889C54.188 110.195 55.5612 111.432 55.7069 111.636C55.8523 111.839 56.4739 112.333 57.088 112.732C57.7026 113.132 60.1369 114.907 62.4979 116.678C68.5585 121.223 69.5367 121.925 69.8169 121.925C69.9531 121.925 70.4433 122.267 70.906 122.685C72.3158 123.957 73.0705 124.53 73.3381 124.53C73.4782 124.53 73.8304 124.729 74.1203 124.973C75.1796 125.863 80.1452 128.872 80.555 128.872C80.7868 128.872 80.9767 129.037 80.9767 129.24C80.9767 129.443 81.8606 129.972 82.9409 130.415C84.0212 130.858 84.9051 131.376 84.9051 131.566C84.9051 131.755 85.1626 131.911 85.4773 131.911C85.7925 131.911 86.4843 132.313 87.0151 132.805C87.5459 133.297 88.5651 133.902 89.2796 134.15C89.9946 134.398 90.5795 134.777 90.5795 134.992C90.5795 135.208 90.9723 135.384 91.4524 135.384C91.9326 135.384 92.3254 135.579 92.3254 135.818C92.3254 136.057 92.7065 136.252 93.1726 136.252C93.6388 136.252 94.1364 136.44 94.2787 136.669C94.497 137.02 103.736 141.615 106.511 142.753C108.347 143.505 110.531 144.449 112.963 145.54C114.35 146.163 115.774 146.672 116.127 146.672C116.48 146.672 116.769 146.868 116.769 147.107C116.769 147.345 117.248 147.541 117.834 147.541C118.421 147.541 119.005 147.709 119.132 147.915C119.261 148.121 120.304 148.541 121.45 148.848C122.596 149.155 123.721 149.572 123.949 149.775C124.177 149.979 124.804 150.146 125.342 150.146C125.88 150.146 126.441 150.341 126.59 150.58C126.738 150.819 127.328 151.014 127.899 151.014C128.471 151.014 129.05 151.193 129.185 151.411C129.321 151.628 130.258 151.946 131.268 152.116C132.277 152.285 133.406 152.584 133.775 152.779C134.385 153.102 137.173 153.91 141.212 154.936C145.004 155.899 148.691 156.653 152.015 157.144C153.996 157.437 155.616 157.81 155.616 157.973C155.616 158.136 156.844 158.399 158.345 158.558C159.845 158.718 162.386 158.999 163.991 159.183C166.551 159.478 166.934 159.428 167.105 158.777C167.213 158.369 167.11 157.844 166.877 157.612C166.603 157.34 166.613 157.092 166.905 156.912C167.169 156.75 167.478 157.271 167.647 158.166C167.868 159.342 168.152 159.702 168.869 159.717C169.383 159.728 170.833 159.842 172.094 159.97C173.826 160.147 174.389 160.063 174.399 159.625C174.407 159.272 174.595 159.358 174.88 159.846C175.251 160.482 175.658 160.588 176.864 160.363C177.778 160.192 178.62 160.278 178.983 160.578C179.331 160.865 179.823 160.922 180.15 160.712C180.852 160.261 183.551 160.231 183.552 160.674C183.552 160.854 183.846 161 184.207 161C184.567 161 184.861 160.854 184.861 160.674C184.861 160.495 186.482 160.321 188.462 160.288C193.519 160.202 193.675 160.183 193.373 159.697C193.224 159.459 193.295 159.263 193.529 159.263C193.763 159.263 194.055 159.508 194.176 159.806C194.348 160.228 194.49 160.218 194.813 159.76C195.103 159.348 195.318 159.315 195.527 159.651C195.957 160.344 197.785 160.242 199.345 159.44C200.3 158.948 200.778 158.888 200.992 159.232C201.315 159.752 204.018 159.341 208.155 158.142C209.322 157.804 211.107 157.527 212.119 157.527C213.132 157.527 214.108 157.38 214.288 157.201C214.468 157.022 214.747 156.867 214.906 156.856C216.869 156.728 223.435 154.704 227.325 153.028C228.233 152.637 229.194 152.317 229.459 152.317C230.477 152.317 233.748 150.396 233.748 149.798C233.748 149.338 233.897 149.294 234.308 149.633C234.718 149.972 235.492 149.755 237.214 148.818C238.506 148.116 239.825 147.541 240.147 147.541C240.469 147.541 240.732 147.345 240.732 147.107C240.732 146.868 240.939 146.672 241.191 146.672C241.904 146.672 252.056 140.268 254.341 138.377C255.465 137.447 256.595 136.687 256.851 136.687C257.108 136.687 257.319 136.533 257.319 136.346C257.319 136.159 257.859 135.686 258.519 135.295C260.495 134.126 270.413 124.309 270.413 123.522C270.413 123.121 270.708 122.793 271.068 122.793C271.428 122.793 271.725 122.647 271.727 122.468C271.729 122.288 272.608 121.165 273.679 119.971C274.751 118.777 275.633 117.599 275.639 117.354C275.646 117.108 276.044 116.625 276.524 116.281C277.004 115.936 277.397 115.453 277.397 115.207C277.397 114.96 278.097 113.782 278.951 112.589C280.174 110.881 280.36 110.39 279.824 110.279C279.45 110.202 279.143 110.041 279.143 109.922C279.143 109.519 280.388 108.466 280.864 108.466C281.409 108.466 283.068 105.921 283.07 105.083C283.071 104.774 283.464 104.102 283.945 103.59C284.425 103.077 284.818 102.294 284.818 101.85C284.818 101.405 285.103 100.494 285.451 99.8236C285.957 98.8502 285.985 98.2853 285.592 97.0124C285.066 95.3048 284.251 95.1268 284.023 96.6685C283.947 97.1873 283.603 97.6115 283.259 97.6115C282.916 97.6115 282.635 97.9905 282.635 98.4542C282.635 98.9179 282.464 99.402 282.255 99.5305C282.046 99.6591 281.754 100.366 281.606 101.101C281.458 101.836 281.04 102.733 280.677 103.095C279.724 104.043 279.864 105.218 280.998 105.783C281.925 106.244 281.913 106.258 280.779 106.019C279.859 105.825 279.378 106.006 278.721 106.79C278.249 107.354 277.856 108.157 277.848 108.574C277.84 108.992 277.625 109.334 277.371 109.334C277.117 109.334 277.018 109.509 277.151 109.723C277.284 109.937 277.096 110.225 276.733 110.363C276.371 110.501 275.886 111.108 275.656 111.711C275.425 112.314 275.048 112.807 274.818 112.807C274.589 112.807 274.283 113.176 274.14 113.625C273.996 114.075 273.296 115.05 272.583 115.792C271.87 116.534 271.286 117.308 271.286 117.512C271.286 117.716 270.894 118.237 270.413 118.669C269.933 119.101 269.54 119.591 269.54 119.758C269.54 120.174 261.309 128.399 259.551 129.74C258.768 130.337 257.503 131.391 256.741 132.082C255.978 132.773 254.618 133.825 253.718 134.419C252.818 135.013 252.081 135.655 252.081 135.846C252.081 136.036 251.193 136.633 250.107 137.172C249.022 137.711 247.598 138.696 246.943 139.361C246.288 140.026 245.506 140.575 245.206 140.582C244.863 140.59 244.66 141.237 244.66 142.331C244.66 143.286 244.464 144.067 244.224 144.067C243.847 144.067 243.575 142.799 243.736 141.788C243.813 141.3 243.778 141.315 239.901 143.394C236.492 145.222 233.292 146.768 231.348 147.525C230.867 147.712 229.591 148.279 228.51 148.785C226.32 149.811 221.362 151.535 217.38 152.654C215.939 153.06 214.663 153.491 214.543 153.614C214.423 153.736 213.833 153.871 213.233 153.913C212.633 153.956 211.258 154.204 210.178 154.464C207.862 155.024 207.211 155.135 202.321 155.813C196.278 156.651 195.577 156.692 184.651 156.846C178.893 156.928 173.744 156.828 173.208 156.626C172.63 156.407 172.128 156.427 171.974 156.675C171.57 157.326 170.022 157.165 169.743 156.444C169.605 156.087 169.351 155.882 169.177 155.989C168.899 156.16 164.983 155.662 157.362 154.487C156.042 154.283 153.39 153.788 151.47 153.388C149.549 152.987 147.192 152.56 146.232 152.439C145.272 152.318 144.243 152.024 143.946 151.785C143.649 151.546 142.929 151.47 142.345 151.616C141.738 151.768 141.217 151.679 141.126 151.409C141.039 151.149 139.992 150.676 138.799 150.357C132.964 148.799 126.893 146.999 125.717 146.477C122.988 145.267 119.561 144.067 118.834 144.067C118.418 144.067 118.078 143.889 118.078 143.672C118.078 143.454 117.293 143.144 116.332 142.982C115.372 142.821 114.586 142.511 114.586 142.293C114.586 142.075 114.39 141.897 114.151 141.897C113.912 141.897 112.488 141.337 110.987 140.652C109.486 139.968 106.882 138.857 105.202 138.184C103.521 137.51 101.895 136.771 101.587 136.542C101.28 136.311 99.8064 135.503 98.3136 134.744C96.8204 133.985 94.8894 132.958 94.022 132.461C91.531 131.035 90.9361 130.726 88.6152 129.659C87.4149 129.106 86.1783 128.415 85.8667 128.123C85.5555 127.83 84.5733 127.254 83.6842 126.843C82.7955 126.431 81.9697 125.977 81.8496 125.832C81.407 125.301 77.4276 122.793 77.0264 122.793C76.7982 122.793 76.6118 122.611 76.6118 122.388C76.6118 122.165 76.1997 121.853 75.6956 121.694C75.1919 121.535 74.4202 121.082 73.981 120.688C72.8034 119.631 72.2543 119.22 69.8462 117.591C68.6458 116.779 67.5982 115.956 67.5184 115.763C67.438 115.57 67.1316 115.412 66.8366 115.412C66.5419 115.412 65.9195 115.07 65.4542 114.653C64.9885 114.235 63.8222 113.313 62.8619 112.603C61.902 111.894 60.7235 110.95 60.2434 110.504C59.7632 110.059 58.6829 109.329 57.8427 108.882C57.0024 108.435 56.4629 108.061 56.6437 108.051C56.8244 108.04 56.1369 107.299 55.1159 106.403C54.095 105.508 53.1941 104.629 53.1142 104.45C53.0339 104.27 52.7698 104.124 52.5271 104.124C52.2844 104.124 51.1801 103.293 50.0732 102.279C46.4115 98.9214 40.7663 93.513 39.1439 91.8071C38.2648 90.8832 36.2199 88.7458 34.5996 87.0569C32.9794 85.368 31.6533 83.8445 31.6533 83.6713C31.6533 83.498 31.5058 83.2914 31.3255 83.2115C31.1448 83.132 29.7816 81.5039 28.2958 79.5936C26.81 77.6832 25.3373 75.8206 25.0226 75.4546C23.6686 73.8777 22.0178 71.5458 21.5957 70.6141C21.0623 69.4362 20.5437 68.5753 18.7703 65.9229C16.7066 62.8364 15.8558 62.0098 14.7441 62.0098C14.1361 62.0098 13.8218 61.8227 13.9864 61.5578C14.1409 61.3095 14.6455 61.2257 15.1081 61.3715C15.8798 61.6151 15.9056 61.5361 15.4224 60.4125C14.5717 58.4335 14.1688 58.1023 12.6127 58.1023C11.8017 58.1023 11.1383 58.1635 11.1383 58.2381ZM87.9605 60.7073C87.9605 60.9461 88.1687 61.1414 88.4228 61.1414C88.6768 61.1414 88.7637 60.9461 88.6152 60.7073C88.4668 60.4685 88.2591 60.2731 88.153 60.2731C88.0469 60.2731 87.9605 60.4685 87.9605 60.7073ZM91.7706 67.0479C91.6257 67.192 91.249 67.2076 90.9343 67.0822C90.586 66.9437 90.6894 66.8408 91.198 66.8199C91.658 66.8012 91.9156 66.9037 91.7706 67.0479ZM285.145 92.7271C285.033 93.6228 284.971 94.3965 285.008 94.4464C285.317 94.8736 287 93.8672 287 93.2546C287 90.7599 285.447 90.3184 285.145 92.7271ZM285.691 96.1175C285.691 96.4896 285.887 96.6737 286.127 96.5261C286.367 96.3785 286.564 96.0741 286.564 95.8492C286.564 95.6243 286.367 95.4407 286.127 95.4407C285.887 95.4407 285.691 95.7455 285.691 96.1175Z" fill="black"/>
</svg>
